# Blender v3.0.0 OBJ File: ''
# www.blender.org
mtllib floor_panel.mtl
o Cube
v 0.500000 -0.050000 -0.500000
v 0.500000 -1.000000 -0.500000
v 0.500000 -0.050000 0.500000
v 0.500000 -1.000000 0.500000
v -0.500000 -0.050000 -0.500000
v -0.500000 -1.000000 -0.500000
v -0.500000 -0.050000 0.500000
v -0.500000 -1.000000 0.500000
v 0.450000 0.000000 0.450000
v -0.450000 0.000000 0.450000
v 0.450000 0.000000 -0.450000
v -0.450000 0.000000 -0.450000
vt 0.000000 0.344828
vt 0.327586 0.327586
vt 0.344828 0.344828
vt 0.344828 0.344828
vt 0.672414 0.000000
vt 0.672414 0.344828
vt 0.344828 0.689655
vt 0.672414 0.344828
vt 0.672414 0.689655
vt 0.344828 0.344828
vt 0.000000 0.689655
vt 0.000000 0.344828
vt 0.672414 0.344828
vt 1.000000 0.000000
vt 1.000000 0.344828
vt 0.672414 0.689655
vt 1.000000 0.689655
vt 0.327586 0.017241
vt 0.017241 0.327586
vt 0.017241 0.017241
vt 0.344828 0.000000
vt 0.000000 0.000000
vt 0.344828 0.000000
vt 0.344828 0.344828
vt 0.344828 0.689655
vt 0.672414 0.000000
vn 0.0000 0.7071 0.7071
vn 0.0000 0.0000 1.0000
vn -1.0000 0.0000 0.0000
vn 0.0000 -1.0000 0.0000
vn 1.0000 0.0000 0.0000
vn 0.0000 0.0000 -1.0000
vn 0.0000 1.0000 0.0000
vn -0.7071 0.7071 0.0000
vn 0.7071 0.7071 0.0000
vn 0.0000 0.7071 -0.7071
usemtl Material
s off
f 3/1/1 10/2/1 7/3/1
f 3/4/2 8/5/2 4/6/2
f 7/7/3 6/8/3 8/9/3
f 2/10/4 8/11/4 6/12/4
f 1/13/5 4/14/5 2/15/5
f 5/16/6 2/15/6 6/17/6
f 12/18/7 9/19/7 11/20/7
f 7/3/8 12/18/8 5/21/8
f 1/22/9 9/19/9 3/1/9
f 5/21/10 11/20/10 1/22/10
f 3/1/1 9/19/1 10/2/1
f 3/4/2 7/23/2 8/5/2
f 7/7/3 5/24/3 6/8/3
f 2/10/4 4/25/4 8/11/4
f 1/13/5 3/26/5 4/14/5
f 5/16/6 1/13/6 2/15/6
f 12/18/7 10/2/7 9/19/7
f 7/3/8 10/2/8 12/18/8
f 1/22/9 11/20/9 9/19/9
f 5/21/10 12/18/10 11/20/10
